# xmcd
#
# Track frame offsets:
#	150
#	12046
#	28356
#	41911
#	57118
#	73126
#	91211
#	103919
#	120104
#	135105
#	151467
#	165295
#	180168
#	198012
#	216090
#	229153
#	243484
#	257682
#
# Disc length: 3717 seconds
#
# Revision: 1
# Processed by: cddbd v1.5.2PL0 Copyright (c) Steve Scherf et al.
# Submitted via: audiograbber 1.83.01
#
DISCID=e20e8312
DTITLE=Rundel  - Ein halbes Jahrhundert
DYEAR=2014
DGENRE=Blasmusik
TTITLE0=Ferienfahrt
TTITLE1=Unterm Kirschbaum
TTITLE2=Uschi - Polka
TTITLE3=Heidrun - Polka
TTITLE4=Unsere Schönste
TTITLE5=Jubiläumsklänge
TTITLE6=Mit Herz und Schwung
TTITLE7=Blütenwalzer
TTITLE8=Regimentsparade
TTITLE9=Ein Denkmal für die Blasmusik
TTITLE10=Sorgenbrecher
TTITLE11=Wir Musikanten
TTITLE12=Ein halbes Jahrhundert
TTITLE13=Salemonia
TTITLE14=Lebensfreude pur !
TTITLE15=Kirschblütenzauber
TTITLE16=Schöne Ferienzeit
TTITLE17=Von Freund zu Freund
EXTD=
EXTT0=
EXTT1=
EXTT2=
EXTT3=
EXTT4=
EXTT5=
EXTT6=
EXTT7=
EXTT8=
EXTT9=
EXTT10=
EXTT11=
EXTT12=
EXTT13=
EXTT14=
EXTT15=
EXTT16=
EXTT17=
PLAYORDER=
